# xmcd
#
# Track frame offsets: 
#        150
#        13941
#        29131
#        45423
#        55792
#        72994
#        89289
#        107990
#        126391
#        141924
#        160688
#
# Disc length: 2314 seconds
#
# Revision: 0
# Processed by: cddbd v1.5.1PL2 Copyright (c) Steve Scherf et al.
# Submitted via: ExactAudioCopy v0.95b4
#
DISCID=9c09080b
DTITLE=Liube - Dawaj za
DYEAR=2002
DGENRE=Vocal
TTITLE0=Bieriozy
TTITLE1=Domoj
TTITLE2=Pokosy
TTITLE3=Eto bylo, bylo
TTITLE4=Babuszka
TTITLE5=Ty niesi mienia, rieka
TTITLE6=Pojot gitara
TTITLE7=Dwie podruzki
TTITLE8=Ochota
TTITLE9=Dawaj za
TTITLE10=Bieriozy (bonus track)
EXTD=
EXTT0=
EXTT1=
EXTT2=
EXTT3=
EXTT4=
EXTT5=
EXTT6=
EXTT7=
EXTT8=
EXTT9=
EXTT10=
PLAYORDER=
